# xmcd CD database file
#
# Track frame offsets:
#	150
#	3258
#	22245
#	52768
#	70564
#	95283
#	102173
#	137733
#	166132
#	189242
#	192522
#	210157
#	236628
#	256236
#	260583
#
# Disc length: 3884 seconds
#
# Revision: 1
# Processed by: cddbd v1.5.2PL0 Copyright (c) Steve Scherf et al.
# Submitted via: CDex 1.50
#
DISCID=bc0f2a0f
DTITLE=Antje Uhle Trio - Majazztic Steps
DYEAR=1998
DGENRE=Jazz
TTITLE0=Miniatur I
TTITLE1=High Heels
TTITLE2=Majazztic Steps
TTITLE3=I'm Old Fashioned
TTITLE4=Gorizia
TTITLE5=Miniatur II
TTITLE6=Columbia Rhythms
TTITLE7=Slow Shoe Blues
TTITLE8=Karussell
TTITLE9=Miniatur III
TTITLE10=Blues'n
TTITLE11=A Flower Is A Lovesome Thing
TTITLE12=Au Privave
TTITLE13=Miniatur IV
TTITLE14=Und ein Narr wartet auf Antwort
EXTD=YEAR: 1998
EXTT0=
EXTT1=
EXTT2=
EXTT3=
EXTT4=
EXTT5=
EXTT6=
EXTT7=
EXTT8=
EXTT9=
EXTT10=
EXTT11=
EXTT12=
EXTT13=
EXTT14=
PLAYORDER=
